{
	"asset":{
		"generator":"Khronos glTF Blender I/O v4.2.70",
		"version":"2.0"
	},
	"scene":0,
	"scenes":[
		{
			"name":"Scene",
			"nodes":[
				21
			]
		}
	],
	"nodes":[
		{
			"name":"Bn-Head_2",
			"rotation":[
				-1.8189439288107678e-07,
				-4.720812540881525e-08,
				-0.14312370121479034,
				0.9897047877311707
			],
			"translation":[
				7.262860890477896e-08,
				0.7958040237426758,
				-3.4924596548080444e-10
			]
		},
		{
			"children":[
				0
			],
			"name":"Bn-Neck_3",
			"rotation":[
				1.681714252299571e-07,
				-1.4164218953283125e-07,
				0.17636562883853912,
				0.9843247532844543
			],
			"scale":[
				1,
				1.000000238418579,
				1.0000001192092896
			],
			"translation":[
				7.040216587483883e-08,
				0.9922764301300049,
				2.3283064365386963e-10
			]
		},
		{
			"children":[
				1
			],
			"name":"Bn-Back-3_4",
			"rotation":[
				-1.5317929147329323e-09,
				-6.54108092135175e-08,
				0.01630527339875698,
				0.9998670816421509
			],
			"scale":[
				0.9999999403953552,
				0.9999999403953552,
				0.9999998211860657
			],
			"translation":[
				-1.3649696484208107e-08,
				1.2114824056625366,
				-2.2118911147117615e-09
			]
		},
		{
			"name":"Bn-L-Wing-4_5",
			"rotation":[
				0.11674173921346664,
				-1.3211524674261454e-07,
				0.013329912908375263,
				0.9930728673934937
			],
			"scale":[
				1,
				0.9999999403953552,
				0.9999998807907104
			],
			"translation":[
				-7.82310962677002e-08,
				1.7928872108459473,
				-4.507601261138916e-07
			]
		},
		{
			"children":[
				3
			],
			"name":"Bn-L-Wing-3_6",
			"rotation":[
				-0.00018374700448475778,
				-1.1775409802794456e-07,
				-2.0967854652553797e-05,
				1
			],
			"scale":[
				1,
				0.9999999403953552,
				1
			],
			"translation":[
				1.434236764907837e-07,
				1.9552710056304932,
				5.21540641784668e-08
			]
		},
		{
			"children":[
				4
			],
			"name":"Bn-L-Wing-2_7",
			"rotation":[
				0.25749704241752625,
				6.322800771840775e-08,
				0.053658902645111084,
				0.9647880792617798
			],
			"scale":[
				0.9999998807907104,
				0.9999998807907104,
				0.9999998807907104
			],
			"translation":[
				2.086162567138672e-07,
				2.4671106338500977,
				-2.980232238769531e-07
			]
		},
		{
			"children":[
				5
			],
			"name":"Bn-L-Wing-1_8",
			"rotation":[
				0.628220796585083,
				0.04066420719027519,
				-0.016594331711530685,
				0.7767944931983948
			],
			"scale":[
				0.9999998211860657,
				0.9999997615814209,
				0.9999997615814209
			],
			"translation":[
				-0.21167299151420593,
				1.9804407358169556,
				0.5529102087020874
			]
		},
		{
			"name":"Bn-R-Wing-4_9",
			"rotation":[
				0.11683562397956848,
				-0.0007263532024808228,
				-0.012482237070798874,
				0.9930725693702698
			],
			"translation":[
				-1.4901161193847656e-08,
				1.7928873300552368,
				5.476176738739014e-07
			]
		},
		{
			"children":[
				7
			],
			"name":"Bn-R-Wing-3_10",
			"rotation":[
				-0.00018398220709059387,
				1.1811498552560806e-06,
				1.9500965208862908e-05,
				1
			],
			"scale":[
				0.9999999403953552,
				0.9999999403953552,
				1
			],
			"translation":[
				-7.450580596923828e-09,
				1.9552690982818604,
				-1.862645149230957e-08
			]
		},
		{
			"children":[
				8
			],
			"name":"Bn-R-Wing-2_11",
			"rotation":[
				0.25832051038742065,
				-0.007690598722547293,
				-0.04954284802079201,
				0.9647574424743652
			],
			"scale":[
				1,
				1.0000001192092896,
				1
			],
			"translation":[
				5.21540641784668e-08,
				2.4671106338500977,
				-2.0116567611694336e-07
			]
		},
		{
			"children":[
				9
			],
			"name":"Bn-R-Wing-1_12",
			"rotation":[
				0.02410922758281231,
				0.7772254943847656,
				-0.6279773116111755,
				0.031366415321826935
			],
			"scale":[
				0.9999998211860657,
				0.9999999403953552,
				0.9999998211860657
			],
			"translation":[
				-0.21167394518852234,
				1.9804408550262451,
				-0.5529099702835083
			]
		},
		{
			"children":[
				2,
				6,
				10
			],
			"name":"Bn-Back-2_13",
			"rotation":[
				5.3247937614742114e-08,
				-3.1113094678403286e-07,
				0.12601692974567413,
				0.9920281171798706
			],
			"scale":[
				1,
				1.0000001192092896,
				1
			],
			"translation":[
				1.0186340659856796e-08,
				1.2553151845932007,
				1.5133991837501526e-09
			]
		},
		{
			"name":"Bn-Tail_14",
			"rotation":[
				9.65242996642246e-09,
				5.745071529617007e-09,
				-0.9941785335540771,
				0.10774537920951843
			],
			"scale":[
				1.0000020265579224,
				1.0000001192092896,
				1
			],
			"translation":[
				-3.257882781326771e-07,
				9.414507076144218e-07,
				-3.259629011154175e-09
			]
		},
		{
			"children":[
				11,
				12
			],
			"name":"Bn-Back-1_15",
			"rotation":[
				-0.005168802570551634,
				0.004180714953690767,
				0.6247144937515259,
				0.7808249592781067
			],
			"scale":[
				0.9999999403953552,
				1,
				1
			],
			"translation":[
				2.485534906387329,
				0.5473493933677673,
				-0.0026740471366792917
			]
		},
		{
			"children":[
				13
			],
			"name":"GLTF_created_0_rootJoint",
			"rotation":[
				-8.66024496559703e-09,
				1.711582520158572e-08,
				-2.627502382335223e-12,
				1
			],
			"scale":[
				1,
				0.9999998807907104,
				1
			],
			"translation":[
				-1.0477378964424133e-09,
				-2.7939677238464355e-08,
				-4.802132025361061e-10
			]
		},
		{
			"mesh":0,
			"name":"Object_7",
			"skin":0
		},
		{
			"name":"Seagul_16"
		},
		{
			"children":[
				15,
				16,
				14
			],
			"name":"GLTF_created_0"
		},
		{
			"children":[
				17
			],
			"name":"Armature_17",
			"rotation":[
				-0.006647979374974966,
				1.7678503354545683e-05,
				-0.0026591618079692125,
				0.9999743700027466
			],
			"translation":[
				2.5912907123565674,
				0.3456752598285675,
				0
			]
		},
		{
			"children":[
				18
			],
			"name":"GLTF_SceneRootNode",
			"rotation":[
				0.70710688829422,
				0,
				0,
				0.7071066498756409
			]
		},
		{
			"children":[
				19
			],
			"name":"root"
		},
		{
			"children":[
				20
			],
			"name":"Sketchfab_model",
			"rotation":[
				-0.70710688829422,
				0,
				0,
				0.7071066498756409
			],
			"scale":[
				0.1269683837890625,
				0.1269683986902237,
				0.1269683986902237
			]
		}
	],
	"animations":[
		{
			"channels":[
				{
					"sampler":0,
					"target":{
						"node":14,
						"path":"translation"
					}
				},
				{
					"sampler":1,
					"target":{
						"node":14,
						"path":"rotation"
					}
				},
				{
					"sampler":2,
					"target":{
						"node":14,
						"path":"scale"
					}
				},
				{
					"sampler":3,
					"target":{
						"node":13,
						"path":"translation"
					}
				},
				{
					"sampler":4,
					"target":{
						"node":13,
						"path":"rotation"
					}
				},
				{
					"sampler":5,
					"target":{
						"node":13,
						"path":"scale"
					}
				},
				{
					"sampler":6,
					"target":{
						"node":11,
						"path":"translation"
					}
				},
				{
					"sampler":7,
					"target":{
						"node":11,
						"path":"rotation"
					}
				},
				{
					"sampler":8,
					"target":{
						"node":11,
						"path":"scale"
					}
				},
				{
					"sampler":9,
					"target":{
						"node":2,
						"path":"translation"
					}
				},
				{
					"sampler":10,
					"target":{
						"node":2,
						"path":"rotation"
					}
				},
				{
					"sampler":11,
					"target":{
						"node":2,
						"path":"scale"
					}
				},
				{
					"sampler":12,
					"target":{
						"node":1,
						"path":"translation"
					}
				},
				{
					"sampler":13,
					"target":{
						"node":1,
						"path":"rotation"
					}
				},
				{
					"sampler":14,
					"target":{
						"node":1,
						"path":"scale"
					}
				},
				{
					"sampler":15,
					"target":{
						"node":0,
						"path":"translation"
					}
				},
				{
					"sampler":16,
					"target":{
						"node":0,
						"path":"rotation"
					}
				},
				{
					"sampler":17,
					"target":{
						"node":0,
						"path":"scale"
					}
				},
				{
					"sampler":18,
					"target":{
						"node":6,
						"path":"translation"
					}
				},
				{
					"sampler":19,
					"target":{
						"node":6,
						"path":"rotation"
					}
				},
				{
					"sampler":20,
					"target":{
						"node":6,
						"path":"scale"
					}
				},
				{
					"sampler":21,
					"target":{
						"node":5,
						"path":"translation"
					}
				},
				{
					"sampler":22,
					"target":{
						"node":5,
						"path":"rotation"
					}
				},
				{
					"sampler":23,
					"target":{
						"node":5,
						"path":"scale"
					}
				},
				{
					"sampler":24,
					"target":{
						"node":4,
						"path":"translation"
					}
				},
				{
					"sampler":25,
					"target":{
						"node":4,
						"path":"rotation"
					}
				},
				{
					"sampler":26,
					"target":{
						"node":4,
						"path":"scale"
					}
				},
				{
					"sampler":27,
					"target":{
						"node":3,
						"path":"translation"
					}
				},
				{
					"sampler":28,
					"target":{
						"node":3,
						"path":"rotation"
					}
				},
				{
					"sampler":29,
					"target":{
						"node":3,
						"path":"scale"
					}
				},
				{
					"sampler":30,
					"target":{
						"node":10,
						"path":"translation"
					}
				},
				{
					"sampler":31,
					"target":{
						"node":10,
						"path":"rotation"
					}
				},
				{
					"sampler":32,
					"target":{
						"node":10,
						"path":"scale"
					}
				},
				{
					"sampler":33,
					"target":{
						"node":9,
						"path":"translation"
					}
				},
				{
					"sampler":34,
					"target":{
						"node":9,
						"path":"rotation"
					}
				},
				{
					"sampler":35,
					"target":{
						"node":9,
						"path":"scale"
					}
				},
				{
					"sampler":36,
					"target":{
						"node":8,
						"path":"translation"
					}
				},
				{
					"sampler":37,
					"target":{
						"node":8,
						"path":"rotation"
					}
				},
				{
					"sampler":38,
					"target":{
						"node":8,
						"path":"scale"
					}
				},
				{
					"sampler":39,
					"target":{
						"node":7,
						"path":"translation"
					}
				},
				{
					"sampler":40,
					"target":{
						"node":7,
						"path":"rotation"
					}
				},
				{
					"sampler":41,
					"target":{
						"node":7,
						"path":"scale"
					}
				},
				{
					"sampler":42,
					"target":{
						"node":12,
						"path":"translation"
					}
				},
				{
					"sampler":43,
					"target":{
						"node":12,
						"path":"rotation"
					}
				},
				{
					"sampler":44,
					"target":{
						"node":12,
						"path":"scale"
					}
				}
			],
			"name":"ArmatureAction.006",
			"samplers":[
				{
					"input":5,
					"interpolation":"STEP",
					"output":6
				},
				{
					"input":5,
					"interpolation":"STEP",
					"output":7
				},
				{
					"input":5,
					"interpolation":"STEP",
					"output":8
				},
				{
					"input":9,
					"interpolation":"LINEAR",
					"output":10
				},
				{
					"input":5,
					"interpolation":"STEP",
					"output":11
				},
				{
					"input":5,
					"interpolation":"STEP",
					"output":12
				},
				{
					"input":5,
					"interpolation":"LINEAR",
					"output":13
				},
				{
					"input":5,
					"interpolation":"STEP",
					"output":14
				},
				{
					"input":5,
					"interpolation":"STEP",
					"output":15
				},
				{
					"input":5,
					"interpolation":"LINEAR",
					"output":16
				},
				{
					"input":5,
					"interpolation":"STEP",
					"output":17
				},
				{
					"input":5,
					"interpolation":"STEP",
					"output":18
				},
				{
					"input":5,
					"interpolation":"LINEAR",
					"output":19
				},
				{
					"input":9,
					"interpolation":"LINEAR",
					"output":20
				},
				{
					"input":5,
					"interpolation":"LINEAR",
					"output":21
				},
				{
					"input":5,
					"interpolation":"LINEAR",
					"output":22
				},
				{
					"input":9,
					"interpolation":"LINEAR",
					"output":23
				},
				{
					"input":5,
					"interpolation":"LINEAR",
					"output":24
				},
				{
					"input":5,
					"interpolation":"LINEAR",
					"output":25
				},
				{
					"input":9,
					"interpolation":"LINEAR",
					"output":26
				},
				{
					"input":5,
					"interpolation":"STEP",
					"output":27
				},
				{
					"input":5,
					"interpolation":"LINEAR",
					"output":28
				},
				{
					"input":9,
					"interpolation":"LINEAR",
					"output":29
				},
				{
					"input":5,
					"interpolation":"LINEAR",
					"output":30
				},
				{
					"input":5,
					"interpolation":"LINEAR",
					"output":31
				},
				{
					"input":9,
					"interpolation":"LINEAR",
					"output":32
				},
				{
					"input":5,
					"interpolation":"LINEAR",
					"output":33
				},
				{
					"input":5,
					"interpolation":"LINEAR",
					"output":34
				},
				{
					"input":9,
					"interpolation":"LINEAR",
					"output":35
				},
				{
					"input":5,
					"interpolation":"LINEAR",
					"output":36
				},
				{
					"input":5,
					"interpolation":"LINEAR",
					"output":37
				},
				{
					"input":9,
					"interpolation":"LINEAR",
					"output":38
				},
				{
					"input":5,
					"interpolation":"STEP",
					"output":39
				},
				{
					"input":5,
					"interpolation":"LINEAR",
					"output":40
				},
				{
					"input":9,
					"interpolation":"LINEAR",
					"output":41
				},
				{
					"input":5,
					"interpolation":"LINEAR",
					"output":42
				},
				{
					"input":5,
					"interpolation":"LINEAR",
					"output":43
				},
				{
					"input":9,
					"interpolation":"LINEAR",
					"output":44
				},
				{
					"input":5,
					"interpolation":"STEP",
					"output":45
				},
				{
					"input":5,
					"interpolation":"LINEAR",
					"output":46
				},
				{
					"input":9,
					"interpolation":"LINEAR",
					"output":47
				},
				{
					"input":5,
					"interpolation":"STEP",
					"output":48
				},
				{
					"input":5,
					"interpolation":"LINEAR",
					"output":49
				},
				{
					"input":9,
					"interpolation":"LINEAR",
					"output":50
				},
				{
					"input":5,
					"interpolation":"LINEAR",
					"output":51
				}
			]
		}
	],
	"materials":[
		{
			"doubleSided":true,
			"name":"Material.001",
			"pbrMetallicRoughness":{
				"baseColorTexture":{
					"index":0
				},
				"metallicFactor":0,
				"roughnessFactor":0.7264249920845032
			}
		}
	],
	"meshes":[
		{
			"name":"Object_0",
			"primitives":[
				{
					"attributes":{
						"POSITION":0,
						"JOINTS_0":1,
						"WEIGHTS_0":2
					},
					"indices":3,
					"material":0
				}
			]
		}
	],
	"textures":[
		{
			"sampler":0,
			"source":0
		}
	],
	"images":[
		{
			"mimeType":"image/png",
			"name":"Image_0",
			"uri":"Image_0.png"
		}
	],
	"skins":[
		{
			"inverseBindMatrices":4,
			"joints":[
				14,
				13,
				11,
				2,
				1,
				0,
				6,
				5,
				4,
				3,
				10,
				9,
				8,
				7,
				12
			],
			"name":"GLTF_created_0"
		}
	],
	"accessors":[
		{
			"bufferView":0,
			"componentType":5126,
			"count":3291,
			"max":[
				0.8644287586212158,
				0.17975670099258423,
				1.0094921588897705
			],
			"min":[
				-0.05443941429257393,
				0.0032181376591324806,
				-1.0130828619003296
			],
			"type":"VEC3"
		},
		{
			"bufferView":1,
			"componentType":5121,
			"count":3291,
			"type":"VEC4"
		},
		{
			"bufferView":2,
			"componentType":5126,
			"count":3291,
			"type":"VEC4"
		},
		{
			"bufferView":3,
			"componentType":5123,
			"count":13056,
			"type":"SCALAR"
		},
		{
			"bufferView":4,
			"componentType":5126,
			"count":15,
			"type":"MAT4"
		},
		{
			"bufferView":5,
			"componentType":5126,
			"count":2,
			"max":[
				9.458333333333334
			],
			"min":[
				0.08333333333333333
			],
			"type":"SCALAR"
		},
		{
			"bufferView":6,
			"componentType":5126,
			"count":2,
			"type":"VEC3"
		},
		{
			"bufferView":7,
			"componentType":5126,
			"count":2,
			"type":"VEC4"
		},
		{
			"bufferView":8,
			"componentType":5126,
			"count":2,
			"type":"VEC3"
		},
		{
			"bufferView":9,
			"componentType":5126,
			"count":226,
			"max":[
				9.458333333333334
			],
			"min":[
				0.08333333333333333
			],
			"type":"SCALAR"
		},
		{
			"bufferView":10,
			"componentType":5126,
			"count":226,
			"type":"VEC3"
		},
		{
			"bufferView":11,
			"componentType":5126,
			"count":2,
			"type":"VEC4"
		},
		{
			"bufferView":12,
			"componentType":5126,
			"count":2,
			"type":"VEC3"
		},
		{
			"bufferView":13,
			"componentType":5126,
			"count":2,
			"type":"VEC3"
		},
		{
			"bufferView":14,
			"componentType":5126,
			"count":2,
			"type":"VEC4"
		},
		{
			"bufferView":15,
			"componentType":5126,
			"count":2,
			"type":"VEC3"
		},
		{
			"bufferView":16,
			"componentType":5126,
			"count":2,
			"type":"VEC3"
		},
		{
			"bufferView":17,
			"componentType":5126,
			"count":2,
			"type":"VEC4"
		},
		{
			"bufferView":18,
			"componentType":5126,
			"count":2,
			"type":"VEC3"
		},
		{
			"bufferView":19,
			"componentType":5126,
			"count":2,
			"type":"VEC3"
		},
		{
			"bufferView":20,
			"componentType":5126,
			"count":226,
			"type":"VEC4"
		},
		{
			"bufferView":21,
			"componentType":5126,
			"count":2,
			"type":"VEC3"
		},
		{
			"bufferView":22,
			"componentType":5126,
			"count":2,
			"type":"VEC3"
		},
		{
			"bufferView":23,
			"componentType":5126,
			"count":226,
			"type":"VEC4"
		},
		{
			"bufferView":24,
			"componentType":5126,
			"count":2,
			"type":"VEC3"
		},
		{
			"bufferView":25,
			"componentType":5126,
			"count":2,
			"type":"VEC3"
		},
		{
			"bufferView":26,
			"componentType":5126,
			"count":226,
			"type":"VEC4"
		},
		{
			"bufferView":27,
			"componentType":5126,
			"count":2,
			"type":"VEC3"
		},
		{
			"bufferView":28,
			"componentType":5126,
			"count":2,
			"type":"VEC3"
		},
		{
			"bufferView":29,
			"componentType":5126,
			"count":226,
			"type":"VEC4"
		},
		{
			"bufferView":30,
			"componentType":5126,
			"count":2,
			"type":"VEC3"
		},
		{
			"bufferView":31,
			"componentType":5126,
			"count":2,
			"type":"VEC3"
		},
		{
			"bufferView":32,
			"componentType":5126,
			"count":226,
			"type":"VEC4"
		},
		{
			"bufferView":33,
			"componentType":5126,
			"count":2,
			"type":"VEC3"
		},
		{
			"bufferView":34,
			"componentType":5126,
			"count":2,
			"type":"VEC3"
		},
		{
			"bufferView":35,
			"componentType":5126,
			"count":226,
			"type":"VEC4"
		},
		{
			"bufferView":36,
			"componentType":5126,
			"count":2,
			"type":"VEC3"
		},
		{
			"bufferView":37,
			"componentType":5126,
			"count":2,
			"type":"VEC3"
		},
		{
			"bufferView":38,
			"componentType":5126,
			"count":226,
			"type":"VEC4"
		},
		{
			"bufferView":39,
			"componentType":5126,
			"count":2,
			"type":"VEC3"
		},
		{
			"bufferView":40,
			"componentType":5126,
			"count":2,
			"type":"VEC3"
		},
		{
			"bufferView":41,
			"componentType":5126,
			"count":226,
			"type":"VEC4"
		},
		{
			"bufferView":42,
			"componentType":5126,
			"count":2,
			"type":"VEC3"
		},
		{
			"bufferView":43,
			"componentType":5126,
			"count":2,
			"type":"VEC3"
		},
		{
			"bufferView":44,
			"componentType":5126,
			"count":226,
			"type":"VEC4"
		},
		{
			"bufferView":45,
			"componentType":5126,
			"count":2,
			"type":"VEC3"
		},
		{
			"bufferView":46,
			"componentType":5126,
			"count":2,
			"type":"VEC3"
		},
		{
			"bufferView":47,
			"componentType":5126,
			"count":226,
			"type":"VEC4"
		},
		{
			"bufferView":48,
			"componentType":5126,
			"count":2,
			"type":"VEC3"
		},
		{
			"bufferView":49,
			"componentType":5126,
			"count":2,
			"type":"VEC3"
		},
		{
			"bufferView":50,
			"componentType":5126,
			"count":226,
			"type":"VEC4"
		},
		{
			"bufferView":51,
			"componentType":5126,
			"count":2,
			"type":"VEC3"
		}
	],
	"bufferViews":[
		{
			"buffer":0,
			"byteLength":39492,
			"byteOffset":0,
			"target":34962
		},
		{
			"buffer":0,
			"byteLength":13164,
			"byteOffset":39492,
			"target":34962
		},
		{
			"buffer":0,
			"byteLength":52656,
			"byteOffset":52656,
			"target":34962
		},
		{
			"buffer":0,
			"byteLength":26112,
			"byteOffset":105312,
			"target":34963
		},
		{
			"buffer":0,
			"byteLength":960,
			"byteOffset":131424
		},
		{
			"buffer":0,
			"byteLength":8,
			"byteOffset":132384
		},
		{
			"buffer":0,
			"byteLength":24,
			"byteOffset":132392
		},
		{
			"buffer":0,
			"byteLength":32,
			"byteOffset":132416
		},
		{
			"buffer":0,
			"byteLength":24,
			"byteOffset":132448
		},
		{
			"buffer":0,
			"byteLength":904,
			"byteOffset":132472
		},
		{
			"buffer":0,
			"byteLength":2712,
			"byteOffset":133376
		},
		{
			"buffer":0,
			"byteLength":32,
			"byteOffset":136088
		},
		{
			"buffer":0,
			"byteLength":24,
			"byteOffset":136120
		},
		{
			"buffer":0,
			"byteLength":24,
			"byteOffset":136144
		},
		{
			"buffer":0,
			"byteLength":32,
			"byteOffset":136168
		},
		{
			"buffer":0,
			"byteLength":24,
			"byteOffset":136200
		},
		{
			"buffer":0,
			"byteLength":24,
			"byteOffset":136224
		},
		{
			"buffer":0,
			"byteLength":32,
			"byteOffset":136248
		},
		{
			"buffer":0,
			"byteLength":24,
			"byteOffset":136280
		},
		{
			"buffer":0,
			"byteLength":24,
			"byteOffset":136304
		},
		{
			"buffer":0,
			"byteLength":3616,
			"byteOffset":136328
		},
		{
			"buffer":0,
			"byteLength":24,
			"byteOffset":139944
		},
		{
			"buffer":0,
			"byteLength":24,
			"byteOffset":139968
		},
		{
			"buffer":0,
			"byteLength":3616,
			"byteOffset":139992
		},
		{
			"buffer":0,
			"byteLength":24,
			"byteOffset":143608
		},
		{
			"buffer":0,
			"byteLength":24,
			"byteOffset":143632
		},
		{
			"buffer":0,
			"byteLength":3616,
			"byteOffset":143656
		},
		{
			"buffer":0,
			"byteLength":24,
			"byteOffset":147272
		},
		{
			"buffer":0,
			"byteLength":24,
			"byteOffset":147296
		},
		{
			"buffer":0,
			"byteLength":3616,
			"byteOffset":147320
		},
		{
			"buffer":0,
			"byteLength":24,
			"byteOffset":150936
		},
		{
			"buffer":0,
			"byteLength":24,
			"byteOffset":150960
		},
		{
			"buffer":0,
			"byteLength":3616,
			"byteOffset":150984
		},
		{
			"buffer":0,
			"byteLength":24,
			"byteOffset":154600
		},
		{
			"buffer":0,
			"byteLength":24,
			"byteOffset":154624
		},
		{
			"buffer":0,
			"byteLength":3616,
			"byteOffset":154648
		},
		{
			"buffer":0,
			"byteLength":24,
			"byteOffset":158264
		},
		{
			"buffer":0,
			"byteLength":24,
			"byteOffset":158288
		},
		{
			"buffer":0,
			"byteLength":3616,
			"byteOffset":158312
		},
		{
			"buffer":0,
			"byteLength":24,
			"byteOffset":161928
		},
		{
			"buffer":0,
			"byteLength":24,
			"byteOffset":161952
		},
		{
			"buffer":0,
			"byteLength":3616,
			"byteOffset":161976
		},
		{
			"buffer":0,
			"byteLength":24,
			"byteOffset":165592
		},
		{
			"buffer":0,
			"byteLength":24,
			"byteOffset":165616
		},
		{
			"buffer":0,
			"byteLength":3616,
			"byteOffset":165640
		},
		{
			"buffer":0,
			"byteLength":24,
			"byteOffset":169256
		},
		{
			"buffer":0,
			"byteLength":24,
			"byteOffset":169280
		},
		{
			"buffer":0,
			"byteLength":3616,
			"byteOffset":169304
		},
		{
			"buffer":0,
			"byteLength":24,
			"byteOffset":172920
		},
		{
			"buffer":0,
			"byteLength":24,
			"byteOffset":172944
		},
		{
			"buffer":0,
			"byteLength":3616,
			"byteOffset":172968
		},
		{
			"buffer":0,
			"byteLength":24,
			"byteOffset":176584
		}
	],
	"samplers":[
		{
			"magFilter":9729,
			"minFilter":9987
		}
	],
	"buffers":[
		{
			"byteLength":176608,
			"uri":"seagull.bin"
		}
	]
}
