{
	"asset":{
		"generator":"Khronos glTF Blender I/O v4.2.70",
		"version":"2.0"
	},
	"scene":0,
	"scenes":[
		{
			"name":"Scene",
			"nodes":[
				19
			]
		}
	],
	"nodes":[
		{
			"name":"05_Colibri.001_12"
		},
		{
			"name":"Head.001_0",
			"rotation":[
				1.9481572621771193e-07,
				1.8670299084533326e-07,
				0.5112645626068115,
				0.8594233989715576
			],
			"translation":[
				5.983800122066896e-08,
				0.5763212442398071,
				2.1756818568974268e-11
			]
		},
		{
			"children":[
				1
			],
			"name":"Neck.001_1",
			"rotation":[
				-2.908843610427425e-09,
				-2.1587997878214082e-07,
				-0.13815799355506897,
				0.9904102683067322
			],
			"scale":[
				0.9999999403953552,
				1,
				0.9999999403953552
			],
			"translation":[
				7.460366191480716e-08,
				0.603289008140564,
				-3.658229275060876e-11
			]
		},
		{
			"name":"Tail.001_2",
			"rotation":[
				-0.06092178076505661,
				3.999120679054613e-08,
				2.4279751187350485e-07,
				0.9981425404548645
			],
			"scale":[
				1,
				1.0000001192092896,
				1
			],
			"translation":[
				-1.0763212543452028e-10,
				0.7535324096679688,
				-2.5723142016431666e-07
			]
		},
		{
			"children":[
				3
			],
			"name":"Ass_02.001_3",
			"rotation":[
				-0.09723807126283646,
				-1.0151599383334542e-07,
				1.681701000677549e-08,
				0.9952611923217773
			],
			"scale":[
				1,
				1,
				0.9999999403953552
			],
			"translation":[
				9.748646334628575e-12,
				1.048207402229309,
				5.9596231949399225e-08
			]
		},
		{
			"children":[
				4
			],
			"name":"Ass_01.001_4",
			"rotation":[
				-0.7068164348602295,
				-0.020266147330403328,
				-0.7068161368370056,
				0.020266922190785408
			],
			"scale":[
				1.0000026226043701,
				1,
				1
			],
			"translation":[
				7.460366191480716e-08,
				0.603289008140564,
				-3.658229275060876e-11
			]
		},
		{
			"name":"Wing_L_03.001_5",
			"rotation":[
				-0.017911801114678383,
				-0.010151952505111694,
				0.08716500550508499,
				0.9959811568260193
			],
			"scale":[
				0.9999999403953552,
				1.0000001192092896,
				0.9999999403953552
			],
			"translation":[
				-5.960464477539063e-08,
				0.9615875482559204,
				-3.8929283618927e-07
			]
		},
		{
			"children":[
				6
			],
			"name":"Wing_L_02.001_6",
			"rotation":[
				-0.14488449692726135,
				0.0054179597645998,
				0.23820602893829346,
				0.9603317379951477
			],
			"scale":[
				0.9999998807907104,
				1,
				1.000000238418579
			],
			"translation":[
				1.955777406692505e-08,
				0.696749210357666,
				3.0919909477233887e-07
			]
		},
		{
			"children":[
				7
			],
			"name":"Wing_L_01.001_7",
			"rotation":[
				0.29276400804519653,
				0.7178202867507935,
				0.5277175903320312,
				0.3471849858760834
			],
			"scale":[
				1,
				1.000000238418579,
				1
			],
			"translation":[
				-2.383207089451389e-07,
				0.6032888293266296,
				2.9765852005425586e-08
			]
		},
		{
			"name":"Wing_R_03.001_8",
			"rotation":[
				0.029732445254921913,
				-0.039752084761857986,
				-0.08387215435504913,
				0.9952393174171448
			],
			"scale":[
				0.9999999403953552,
				1,
				1
			],
			"translation":[
				1.1920928955078125e-07,
				0.9615880250930786,
				-1.7881393432617188e-07
			]
		},
		{
			"children":[
				9
			],
			"name":"Wing_R_02.001_9",
			"rotation":[
				0.14989902079105377,
				-0.4823947846889496,
				-0.235082745552063,
				0.8303984999656677
			],
			"scale":[
				1.0000001192092896,
				0.9999998211860657,
				0.9999999403953552
			],
			"translation":[
				-3.0547380447387695e-07,
				0.696749210357666,
				-6.705522537231445e-08
			]
		},
		{
			"children":[
				10
			],
			"name":"Wing_R_01.001_10",
			"rotation":[
				-0.1475127935409546,
				0.761062741279602,
				-0.5851811766624451,
				0.23787921667099
			],
			"scale":[
				0.9999998807907104,
				1.0000001192092896,
				0.9999999403953552
			],
			"translation":[
				7.460366191480716e-08,
				0.603289008140564,
				-3.658229275060876e-11
			]
		},
		{
			"children":[
				2,
				5,
				8,
				11
			],
			"name":"Body.001_11",
			"rotation":[
				8.987020549966473e-08,
				-3.15206882817165e-08,
				0.4472324848175049,
				0.8944177627563477
			],
			"scale":[
				0.9999999403953552,
				0.9999999403953552,
				0.9999999403953552
			],
			"translation":[
				0.12305328994989395,
				0.7645883560180664,
				0.0003894609399139881
			]
		},
		{
			"children":[
				12
			],
			"name":"GLTF_created_0_rootJoint",
			"rotation":[
				-8.557138109210882e-09,
				1.7114274442064925e-08,
				-2.928984080370411e-16,
				1
			],
			"scale":[
				0.9999999403953552,
				0.9999999403953552,
				0.9999999403953552
			]
		},
		{
			"mesh":0,
			"name":"Object_7",
			"skin":0
		},
		{
			"children":[
				0,
				14,
				13
			],
			"name":"GLTF_created_0"
		},
		{
			"children":[
				15
			],
			"name":"05_Colibri_Bird.001_13"
		},
		{
			"children":[
				16
			],
			"name":"GLTF_SceneRootNode",
			"rotation":[
				0.70710688829422,
				0,
				0,
				0.7071066498756409
			]
		},
		{
			"children":[
				17
			],
			"name":"root"
		},
		{
			"children":[
				18
			],
			"name":"Sketchfab_model",
			"rotation":[
				-0.7071067690849304,
				0,
				0,
				0.7071068286895752
			],
			"scale":[
				0.0480605773627758,
				0.0480605773627758,
				0.0480605773627758
			]
		}
	],
	"animations":[
		{
			"channels":[
				{
					"sampler":0,
					"target":{
						"node":13,
						"path":"translation"
					}
				},
				{
					"sampler":1,
					"target":{
						"node":13,
						"path":"rotation"
					}
				},
				{
					"sampler":2,
					"target":{
						"node":13,
						"path":"scale"
					}
				},
				{
					"sampler":3,
					"target":{
						"node":12,
						"path":"translation"
					}
				},
				{
					"sampler":4,
					"target":{
						"node":12,
						"path":"rotation"
					}
				},
				{
					"sampler":5,
					"target":{
						"node":12,
						"path":"scale"
					}
				},
				{
					"sampler":6,
					"target":{
						"node":2,
						"path":"translation"
					}
				},
				{
					"sampler":7,
					"target":{
						"node":2,
						"path":"rotation"
					}
				},
				{
					"sampler":8,
					"target":{
						"node":2,
						"path":"scale"
					}
				},
				{
					"sampler":9,
					"target":{
						"node":1,
						"path":"translation"
					}
				},
				{
					"sampler":10,
					"target":{
						"node":1,
						"path":"rotation"
					}
				},
				{
					"sampler":11,
					"target":{
						"node":1,
						"path":"scale"
					}
				},
				{
					"sampler":12,
					"target":{
						"node":5,
						"path":"translation"
					}
				},
				{
					"sampler":13,
					"target":{
						"node":5,
						"path":"rotation"
					}
				},
				{
					"sampler":14,
					"target":{
						"node":5,
						"path":"scale"
					}
				},
				{
					"sampler":15,
					"target":{
						"node":4,
						"path":"translation"
					}
				},
				{
					"sampler":16,
					"target":{
						"node":4,
						"path":"rotation"
					}
				},
				{
					"sampler":17,
					"target":{
						"node":4,
						"path":"scale"
					}
				},
				{
					"sampler":18,
					"target":{
						"node":3,
						"path":"translation"
					}
				},
				{
					"sampler":19,
					"target":{
						"node":3,
						"path":"rotation"
					}
				},
				{
					"sampler":20,
					"target":{
						"node":3,
						"path":"scale"
					}
				},
				{
					"sampler":21,
					"target":{
						"node":8,
						"path":"translation"
					}
				},
				{
					"sampler":22,
					"target":{
						"node":8,
						"path":"rotation"
					}
				},
				{
					"sampler":23,
					"target":{
						"node":8,
						"path":"scale"
					}
				},
				{
					"sampler":24,
					"target":{
						"node":7,
						"path":"translation"
					}
				},
				{
					"sampler":25,
					"target":{
						"node":7,
						"path":"rotation"
					}
				},
				{
					"sampler":26,
					"target":{
						"node":7,
						"path":"scale"
					}
				},
				{
					"sampler":27,
					"target":{
						"node":6,
						"path":"translation"
					}
				},
				{
					"sampler":28,
					"target":{
						"node":6,
						"path":"rotation"
					}
				},
				{
					"sampler":29,
					"target":{
						"node":6,
						"path":"scale"
					}
				},
				{
					"sampler":30,
					"target":{
						"node":11,
						"path":"translation"
					}
				},
				{
					"sampler":31,
					"target":{
						"node":11,
						"path":"rotation"
					}
				},
				{
					"sampler":32,
					"target":{
						"node":11,
						"path":"scale"
					}
				},
				{
					"sampler":33,
					"target":{
						"node":10,
						"path":"translation"
					}
				},
				{
					"sampler":34,
					"target":{
						"node":10,
						"path":"rotation"
					}
				},
				{
					"sampler":35,
					"target":{
						"node":10,
						"path":"scale"
					}
				},
				{
					"sampler":36,
					"target":{
						"node":9,
						"path":"translation"
					}
				},
				{
					"sampler":37,
					"target":{
						"node":9,
						"path":"rotation"
					}
				},
				{
					"sampler":38,
					"target":{
						"node":9,
						"path":"scale"
					}
				}
			],
			"name":"05_Colibri_Bird.001Action",
			"samplers":[
				{
					"input":5,
					"interpolation":"STEP",
					"output":6
				},
				{
					"input":5,
					"interpolation":"STEP",
					"output":7
				},
				{
					"input":5,
					"interpolation":"STEP",
					"output":8
				},
				{
					"input":9,
					"interpolation":"LINEAR",
					"output":10
				},
				{
					"input":9,
					"interpolation":"LINEAR",
					"output":11
				},
				{
					"input":5,
					"interpolation":"STEP",
					"output":12
				},
				{
					"input":5,
					"interpolation":"STEP",
					"output":13
				},
				{
					"input":9,
					"interpolation":"LINEAR",
					"output":14
				},
				{
					"input":5,
					"interpolation":"LINEAR",
					"output":15
				},
				{
					"input":5,
					"interpolation":"LINEAR",
					"output":16
				},
				{
					"input":9,
					"interpolation":"LINEAR",
					"output":17
				},
				{
					"input":5,
					"interpolation":"STEP",
					"output":18
				},
				{
					"input":5,
					"interpolation":"STEP",
					"output":19
				},
				{
					"input":9,
					"interpolation":"LINEAR",
					"output":20
				},
				{
					"input":5,
					"interpolation":"LINEAR",
					"output":21
				},
				{
					"input":5,
					"interpolation":"LINEAR",
					"output":22
				},
				{
					"input":9,
					"interpolation":"LINEAR",
					"output":23
				},
				{
					"input":5,
					"interpolation":"LINEAR",
					"output":24
				},
				{
					"input":5,
					"interpolation":"LINEAR",
					"output":25
				},
				{
					"input":9,
					"interpolation":"LINEAR",
					"output":26
				},
				{
					"input":5,
					"interpolation":"LINEAR",
					"output":27
				},
				{
					"input":5,
					"interpolation":"STEP",
					"output":28
				},
				{
					"input":9,
					"interpolation":"LINEAR",
					"output":29
				},
				{
					"input":5,
					"interpolation":"LINEAR",
					"output":30
				},
				{
					"input":5,
					"interpolation":"LINEAR",
					"output":31
				},
				{
					"input":9,
					"interpolation":"LINEAR",
					"output":32
				},
				{
					"input":5,
					"interpolation":"LINEAR",
					"output":33
				},
				{
					"input":5,
					"interpolation":"LINEAR",
					"output":34
				},
				{
					"input":9,
					"interpolation":"LINEAR",
					"output":35
				},
				{
					"input":5,
					"interpolation":"LINEAR",
					"output":36
				},
				{
					"input":5,
					"interpolation":"STEP",
					"output":37
				},
				{
					"input":9,
					"interpolation":"LINEAR",
					"output":38
				},
				{
					"input":5,
					"interpolation":"LINEAR",
					"output":39
				},
				{
					"input":5,
					"interpolation":"LINEAR",
					"output":40
				},
				{
					"input":9,
					"interpolation":"LINEAR",
					"output":41
				},
				{
					"input":5,
					"interpolation":"LINEAR",
					"output":42
				},
				{
					"input":5,
					"interpolation":"LINEAR",
					"output":43
				},
				{
					"input":9,
					"interpolation":"LINEAR",
					"output":44
				},
				{
					"input":5,
					"interpolation":"LINEAR",
					"output":45
				}
			]
		}
	],
	"materials":[
		{
			"doubleSided":true,
			"name":"05_Colibri_Bird_Body",
			"pbrMetallicRoughness":{
				"baseColorTexture":{
					"index":0
				},
				"metallicFactor":0,
				"roughnessFactor":0.5
			}
		}
	],
	"meshes":[
		{
			"name":"Object_0",
			"primitives":[
				{
					"attributes":{
						"POSITION":0,
						"JOINTS_0":1,
						"WEIGHTS_0":2
					},
					"indices":3,
					"material":0
				}
			]
		}
	],
	"textures":[
		{
			"sampler":0,
			"source":0
		}
	],
	"images":[
		{
			"mimeType":"image/png",
			"name":"Image_0",
			"uri":"Image_0.png"
		}
	],
	"skins":[
		{
			"inverseBindMatrices":4,
			"joints":[
				13,
				12,
				2,
				1,
				5,
				4,
				3,
				8,
				7,
				6,
				11,
				10,
				9
			],
			"name":"GLTF_created_0"
		}
	],
	"accessors":[
		{
			"bufferView":0,
			"componentType":5126,
			"count":2174,
			"max":[
				0.12945301830768585,
				0.09967346489429474,
				0.16756035387516022
			],
			"min":[
				-0.12639258801937103,
				-0.09825394302606583,
				-0.16867737472057343
			],
			"type":"VEC3"
		},
		{
			"bufferView":1,
			"componentType":5121,
			"count":2174,
			"type":"VEC4"
		},
		{
			"bufferView":2,
			"componentType":5126,
			"count":2174,
			"type":"VEC4"
		},
		{
			"bufferView":3,
			"componentType":5123,
			"count":9327,
			"type":"SCALAR"
		},
		{
			"bufferView":4,
			"componentType":5126,
			"count":13,
			"type":"MAT4"
		},
		{
			"bufferView":5,
			"componentType":5126,
			"count":2,
			"max":[
				41.291666666666664
			],
			"min":[
				0
			],
			"type":"SCALAR"
		},
		{
			"bufferView":6,
			"componentType":5126,
			"count":2,
			"type":"VEC3"
		},
		{
			"bufferView":7,
			"componentType":5126,
			"count":2,
			"type":"VEC4"
		},
		{
			"bufferView":8,
			"componentType":5126,
			"count":2,
			"type":"VEC3"
		},
		{
			"bufferView":9,
			"componentType":5126,
			"count":992,
			"max":[
				41.291666666666664
			],
			"min":[
				0
			],
			"type":"SCALAR"
		},
		{
			"bufferView":10,
			"componentType":5126,
			"count":992,
			"type":"VEC3"
		},
		{
			"bufferView":11,
			"componentType":5126,
			"count":992,
			"type":"VEC4"
		},
		{
			"bufferView":12,
			"componentType":5126,
			"count":2,
			"type":"VEC3"
		},
		{
			"bufferView":13,
			"componentType":5126,
			"count":2,
			"type":"VEC3"
		},
		{
			"bufferView":14,
			"componentType":5126,
			"count":992,
			"type":"VEC4"
		},
		{
			"bufferView":15,
			"componentType":5126,
			"count":2,
			"type":"VEC3"
		},
		{
			"bufferView":16,
			"componentType":5126,
			"count":2,
			"type":"VEC3"
		},
		{
			"bufferView":17,
			"componentType":5126,
			"count":992,
			"type":"VEC4"
		},
		{
			"bufferView":18,
			"componentType":5126,
			"count":2,
			"type":"VEC3"
		},
		{
			"bufferView":19,
			"componentType":5126,
			"count":2,
			"type":"VEC3"
		},
		{
			"bufferView":20,
			"componentType":5126,
			"count":992,
			"type":"VEC4"
		},
		{
			"bufferView":21,
			"componentType":5126,
			"count":2,
			"type":"VEC3"
		},
		{
			"bufferView":22,
			"componentType":5126,
			"count":2,
			"type":"VEC3"
		},
		{
			"bufferView":23,
			"componentType":5126,
			"count":992,
			"type":"VEC4"
		},
		{
			"bufferView":24,
			"componentType":5126,
			"count":2,
			"type":"VEC3"
		},
		{
			"bufferView":25,
			"componentType":5126,
			"count":2,
			"type":"VEC3"
		},
		{
			"bufferView":26,
			"componentType":5126,
			"count":992,
			"type":"VEC4"
		},
		{
			"bufferView":27,
			"componentType":5126,
			"count":2,
			"type":"VEC3"
		},
		{
			"bufferView":28,
			"componentType":5126,
			"count":2,
			"type":"VEC3"
		},
		{
			"bufferView":29,
			"componentType":5126,
			"count":992,
			"type":"VEC4"
		},
		{
			"bufferView":30,
			"componentType":5126,
			"count":2,
			"type":"VEC3"
		},
		{
			"bufferView":31,
			"componentType":5126,
			"count":2,
			"type":"VEC3"
		},
		{
			"bufferView":32,
			"componentType":5126,
			"count":992,
			"type":"VEC4"
		},
		{
			"bufferView":33,
			"componentType":5126,
			"count":2,
			"type":"VEC3"
		},
		{
			"bufferView":34,
			"componentType":5126,
			"count":2,
			"type":"VEC3"
		},
		{
			"bufferView":35,
			"componentType":5126,
			"count":992,
			"type":"VEC4"
		},
		{
			"bufferView":36,
			"componentType":5126,
			"count":2,
			"type":"VEC3"
		},
		{
			"bufferView":37,
			"componentType":5126,
			"count":2,
			"type":"VEC3"
		},
		{
			"bufferView":38,
			"componentType":5126,
			"count":992,
			"type":"VEC4"
		},
		{
			"bufferView":39,
			"componentType":5126,
			"count":2,
			"type":"VEC3"
		},
		{
			"bufferView":40,
			"componentType":5126,
			"count":2,
			"type":"VEC3"
		},
		{
			"bufferView":41,
			"componentType":5126,
			"count":992,
			"type":"VEC4"
		},
		{
			"bufferView":42,
			"componentType":5126,
			"count":2,
			"type":"VEC3"
		},
		{
			"bufferView":43,
			"componentType":5126,
			"count":2,
			"type":"VEC3"
		},
		{
			"bufferView":44,
			"componentType":5126,
			"count":992,
			"type":"VEC4"
		},
		{
			"bufferView":45,
			"componentType":5126,
			"count":2,
			"type":"VEC3"
		}
	],
	"bufferViews":[
		{
			"buffer":0,
			"byteLength":26088,
			"byteOffset":0,
			"target":34962
		},
		{
			"buffer":0,
			"byteLength":8696,
			"byteOffset":26088,
			"target":34962
		},
		{
			"buffer":0,
			"byteLength":34784,
			"byteOffset":34784,
			"target":34962
		},
		{
			"buffer":0,
			"byteLength":18654,
			"byteOffset":69568,
			"target":34963
		},
		{
			"buffer":0,
			"byteLength":832,
			"byteOffset":88224
		},
		{
			"buffer":0,
			"byteLength":8,
			"byteOffset":89056
		},
		{
			"buffer":0,
			"byteLength":24,
			"byteOffset":89064
		},
		{
			"buffer":0,
			"byteLength":32,
			"byteOffset":89088
		},
		{
			"buffer":0,
			"byteLength":24,
			"byteOffset":89120
		},
		{
			"buffer":0,
			"byteLength":3968,
			"byteOffset":89144
		},
		{
			"buffer":0,
			"byteLength":11904,
			"byteOffset":93112
		},
		{
			"buffer":0,
			"byteLength":15872,
			"byteOffset":105016
		},
		{
			"buffer":0,
			"byteLength":24,
			"byteOffset":120888
		},
		{
			"buffer":0,
			"byteLength":24,
			"byteOffset":120912
		},
		{
			"buffer":0,
			"byteLength":15872,
			"byteOffset":120936
		},
		{
			"buffer":0,
			"byteLength":24,
			"byteOffset":136808
		},
		{
			"buffer":0,
			"byteLength":24,
			"byteOffset":136832
		},
		{
			"buffer":0,
			"byteLength":15872,
			"byteOffset":136856
		},
		{
			"buffer":0,
			"byteLength":24,
			"byteOffset":152728
		},
		{
			"buffer":0,
			"byteLength":24,
			"byteOffset":152752
		},
		{
			"buffer":0,
			"byteLength":15872,
			"byteOffset":152776
		},
		{
			"buffer":0,
			"byteLength":24,
			"byteOffset":168648
		},
		{
			"buffer":0,
			"byteLength":24,
			"byteOffset":168672
		},
		{
			"buffer":0,
			"byteLength":15872,
			"byteOffset":168696
		},
		{
			"buffer":0,
			"byteLength":24,
			"byteOffset":184568
		},
		{
			"buffer":0,
			"byteLength":24,
			"byteOffset":184592
		},
		{
			"buffer":0,
			"byteLength":15872,
			"byteOffset":184616
		},
		{
			"buffer":0,
			"byteLength":24,
			"byteOffset":200488
		},
		{
			"buffer":0,
			"byteLength":24,
			"byteOffset":200512
		},
		{
			"buffer":0,
			"byteLength":15872,
			"byteOffset":200536
		},
		{
			"buffer":0,
			"byteLength":24,
			"byteOffset":216408
		},
		{
			"buffer":0,
			"byteLength":24,
			"byteOffset":216432
		},
		{
			"buffer":0,
			"byteLength":15872,
			"byteOffset":216456
		},
		{
			"buffer":0,
			"byteLength":24,
			"byteOffset":232328
		},
		{
			"buffer":0,
			"byteLength":24,
			"byteOffset":232352
		},
		{
			"buffer":0,
			"byteLength":15872,
			"byteOffset":232376
		},
		{
			"buffer":0,
			"byteLength":24,
			"byteOffset":248248
		},
		{
			"buffer":0,
			"byteLength":24,
			"byteOffset":248272
		},
		{
			"buffer":0,
			"byteLength":15872,
			"byteOffset":248296
		},
		{
			"buffer":0,
			"byteLength":24,
			"byteOffset":264168
		},
		{
			"buffer":0,
			"byteLength":24,
			"byteOffset":264192
		},
		{
			"buffer":0,
			"byteLength":15872,
			"byteOffset":264216
		},
		{
			"buffer":0,
			"byteLength":24,
			"byteOffset":280088
		},
		{
			"buffer":0,
			"byteLength":24,
			"byteOffset":280112
		},
		{
			"buffer":0,
			"byteLength":15872,
			"byteOffset":280136
		},
		{
			"buffer":0,
			"byteLength":24,
			"byteOffset":296008
		}
	],
	"samplers":[
		{
			"magFilter":9729,
			"minFilter":9987
		}
	],
	"buffers":[
		{
			"byteLength":296032,
			"uri":"humming_bird.bin"
		}
	]
}
